<svg width="228" height="228" viewBox="0 0 228 228" fill="none" xmlns="http://www.w3.org/2000/svg">
<path d="M183.536 93.7303C186.907 109.845 183.388 147.847 142.344 170.935C167.801 160.657 211.502 137.636 183.536 93.7303Z" fill="#D9D9D9"/>
<path d="M13.2109 145C19.2927 161.945 80.2939 217.998 161.711 215.5C148.174 223.944 125.149 228.058 115.718 227.999C44.8949 227.605 17.8703 172.502 13.2109 145Z" fill="url(#paint0_linear_284_446)"/>
<path d="M131.239 119.383C156.984 143.802 145.145 169.455 140.212 173.155C142.103 166.166 140.261 148.736 121.712 130.976C98.5262 108.777 107.652 82.3842 123.439 74.9844C136.068 69.0646 146.461 69.8207 150.078 70.9388C127.561 70.8314 110.169 99.3987 131.239 119.383Z" fill="url(#paint1_linear_284_446)"/>
<path d="M80.6761 0C82.3205 6.16652 92.9593 20.5717 122.361 28.8594C151.762 37.147 156.646 51.2224 155.413 57.2246C170.608 63.7364 171.94 74.9021 170.706 79.6709C141.354 53.0318 103.615 93.7302 131.241 119.383C153.341 139.905 147.849 162.301 142.34 170.935C183.384 147.847 186.904 109.846 183.532 93.7305C191.425 106.359 193.163 116.094 192.752 119.383C202.816 90.7704 196.309 67.8998 191.211 60.5C244.211 122 204.211 226 115.454 227.666C44.2307 229.003 15.2112 166.5 13.2112 144.5C19.3283 161.47 37.5929 169.208 46.3909 170.935C-11.7846 135.5 18.7151 72 43.2141 52C21.9036 79.0339 42.5268 108.694 52.5569 119.383C39.5334 83.6666 65.8765 59.6091 80.6761 52.0449C57.1941 49.4797 49.8444 32.8874 49.1048 24.9121C59.5637 39.9087 77.3047 42.1783 84.8684 41.4385C58.2297 31.7694 59.9565 13.8946 64.1497 6.16602C65.1363 26.0959 90.8703 32.7236 103.615 33.5459C86.842 28.4152 81.3338 9.04413 80.6761 0ZM148.601 58.7051C146.134 55.1696 137.502 48.4938 122.702 50.0723C125.087 50.0723 130.101 50.2695 131.088 51.0586C132.321 52.0452 134.542 59.1987 140.955 59.4453C146.084 59.6425 148.189 59.034 148.601 58.7051Z" fill="url(#paint2_linear_284_446)"/>
<path d="M50.3703 88.3041C43.4638 122.639 64.242 140.843 82.1898 142.569C65.5183 120.224 61.7249 101.238 65.2831 85.8375C69.7689 66.4216 86.4329 55.4174 103.214 47.852C86.4413 46.1253 57.2769 57.5211 50.3703 88.3041Z" fill="url(#paint3_linear_284_446)"/>
<path d="M49.1015 53.5249C27.7909 80.5588 42.5236 108.694 52.5537 119.383C59.4914 125.303 77.6593 136.768 91.8662 143.062C111.352 151.695 121.465 175.128 106.666 193.874C109.708 186.639 105.679 167.58 65.2271 149.229C14.6619 126.289 25.5762 72.5177 49.1015 53.5249Z" fill="url(#paint4_linear_284_446)"/>
<path d="M142.213 171C217.713 125 196.811 68.3998 191.713 61C218.137 90.4347 237.005 158.454 110.123 193.381C115.55 191.841 130.571 185.01 142.213 171Z" fill="url(#paint5_linear_284_446)"/>
<path d="M80.6709 0C82.3154 6.16653 92.9548 20.5717 122.356 28.8594C151.757 37.147 156.641 51.2224 155.408 57.2246C170.602 63.7364 171.934 74.9021 170.701 79.6709C165.725 75.1545 160.507 72.5741 155.408 71.5273C105.213 63.4336 99.9616 102.36 103.61 122.836C87.3548 94.6182 97.7211 77.8617 104.937 73.0107C86.1905 85.0476 88.7398 110.092 92.3574 121.109C70.8487 99.206 81.4221 75.478 89.3975 66.3516C78.7913 66.3516 66.9517 84.9324 64.7314 89.5371C65.9155 69.0152 84.9574 55.1694 93.3438 51.5518C88.6081 51.9464 82.9222 52.0449 80.6709 52.0449C57.1889 49.4797 49.8392 32.8874 49.0996 24.9121C59.5588 39.909 77.3007 42.1785 84.8643 41.4385C58.2251 31.7694 59.9513 13.8947 64.1445 6.16602C65.1312 26.0961 90.8663 32.7237 103.61 33.5459C86.8375 28.4154 81.3287 9.04419 80.6709 0ZM148.595 58.7051C146.128 55.1696 137.495 48.4938 122.696 50.0723C125.081 50.0723 130.095 50.2695 131.082 51.0586C132.315 52.0452 134.536 59.1987 140.949 59.4453C146.078 59.6425 148.183 59.034 148.595 58.7051Z" fill="url(#paint6_linear_284_446)"/>
<path d="M111.109 195.847C133.144 199.301 183.578 194.466 212.98 145.529C205.333 176.361 193 218.54 111.109 195.847Z" fill="url(#paint7_linear_284_446)"/>
<defs>
<linearGradient id="paint0_linear_284_446" x1="13.0586" y1="149.926" x2="141.826" y2="222.108" gradientUnits="userSpaceOnUse">
<stop stop-color="#DE271D"/>
<stop offset="0.490385" stop-color="#F13117" stop-opacity="0.6"/>
<stop offset="1" stop-color="#FB4A11"/>
</linearGradient>
<linearGradient id="paint1_linear_284_446" x1="128.882" y1="70.1661" x2="128.882" y2="173.155" gradientUnits="userSpaceOnUse">
<stop stop-color="#F33913"/>
<stop offset="0.480769" stop-color="#F74611"/>
<stop offset="1" stop-color="#FB540E"/>
</linearGradient>
<linearGradient id="paint2_linear_284_446" x1="58.5187" y1="7.4004" x2="118.379" y2="227.693" gradientUnits="userSpaceOnUse">
<stop stop-color="#FD5110"/>
<stop offset="0.389128" stop-color="#F73714"/>
<stop offset="0.613545" stop-color="#EE2F16"/>
<stop offset="1" stop-color="#F97910"/>
</linearGradient>
<linearGradient id="paint3_linear_284_446" x1="71.3658" y1="49.8252" x2="71.3658" y2="142.569" gradientUnits="userSpaceOnUse">
<stop stop-color="#FA3612"/>
<stop offset="0.360577" stop-color="#EF2E16"/>
<stop offset="0.663462" stop-color="#E92918"/>
<stop offset="1" stop-color="#E5261A"/>
</linearGradient>
<linearGradient id="paint4_linear_284_446" x1="71.5413" y1="53.5249" x2="71.5413" y2="193.874" gradientUnits="userSpaceOnUse">
<stop stop-color="#F73514"/>
<stop offset="1" stop-color="#FB700C"/>
</linearGradient>
<linearGradient id="paint5_linear_284_446" x1="201.88" y1="61.6648" x2="118.263" y2="190.668" gradientUnits="userSpaceOnUse">
<stop stop-color="#FD9211"/>
<stop offset="1" stop-color="#FB7910" stop-opacity="0.2"/>
</linearGradient>
<linearGradient id="paint6_linear_284_446" x1="110.076" y1="0" x2="110.076" y2="122.836" gradientUnits="userSpaceOnUse">
<stop stop-color="#FD6A0F"/>
<stop offset="0.475962" stop-color="#FD5A0E"/>
<stop offset="1" stop-color="#F83B11"/>
</linearGradient>
<linearGradient id="paint7_linear_284_446" x1="216.186" y1="148.736" x2="111.356" y2="194.367" gradientUnits="userSpaceOnUse">
<stop stop-color="#FB8811" stop-opacity="0.7"/>
<stop offset="0.548077" stop-color="#FB830E" stop-opacity="0.8"/>
<stop offset="1" stop-color="#FB7E0C" stop-opacity="0"/>
</linearGradient>
</defs>
</svg>
