<svg xmlns="http://www.w3.org/2000/svg">
  <defs>
    <symbol id="arrowBack" viewBox="0 0 16 13">
      <path d="M14.6667 6.5H1.33334M1.33334 6.5L6.33334 11.5M1.33334 6.5L6.33334 1.5" stroke="currentColor" stroke-Width="1.66667" stroke-linecap="round" stroke-linejoin="round" />
    </symbol>
    <symbol id="arrowFront" viewBox="0 0 8 14" fill="none">
      <path d="M1 13L7 7L1 1" stroke="currentColor" stroke-width="2" stroke-linecap="round" stroke-linejoin="round" />
    </symbol>
    <symbol id="arrowUp" viewBox="0 0 12 12" fill="none">
      <path d="M5.99992 10.6673V1.33398M5.99992 1.33398L1.33325 6.00065M5.99992 1.33398L10.6666 6.00065" stroke="currentColor" stroke-width="1.33333" stroke-linecap="round" stroke-linejoin="round" />
    </symbol>
    <symbol id="attachment" viewBox="0 0 21 22" fill="none">
      <path d="M19.1525 9.89945L10.1369 18.9151C8.08662 20.9653 4.7625 20.9653 2.71225 18.9151C0.661997 16.8648 0.661998 13.5407 2.71225 11.4904L11.7279 2.47483C13.0947 1.108 15.3108 1.108 16.6776 2.47483C18.0444 3.84167 18.0444 6.05775 16.6776 7.42458L8.01555 16.0866C7.33213 16.7701 6.22409 16.7701 5.54068 16.0866C4.85726 15.4032 4.85726 14.2952 5.54068 13.6118L13.1421 6.01037" stroke="currentColor" stroke-width="2" stroke-linecap="round" stroke-linejoin="round" />
    </symbol>
    <symbol id="badge" viewBox="0 0 16 15" fill="none">
      <path d="M6.00004 7.50065L7.33337 8.83398L10.3334 5.83398M11.9342 2.83299C12.0714 3.16501 12.3349 3.42892 12.6667 3.5667L13.8302 4.04864C14.1622 4.18617 14.426 4.44998 14.5636 4.78202C14.7011 5.11407 14.7011 5.48715 14.5636 5.81919L14.082 6.98185C13.9444 7.31404 13.9442 7.6875 14.0824 8.01953L14.5632 9.18185C14.6313 9.34631 14.6664 9.52259 14.6665 9.70062C14.6665 9.87865 14.6315 10.0549 14.5633 10.2194C14.4952 10.3839 14.3953 10.5333 14.2694 10.6592C14.1435 10.7851 13.9941 10.8849 13.8296 10.953L12.6669 11.4346C12.3349 11.5718 12.071 11.8354 11.9333 12.1672L11.4513 13.3307C11.3138 13.6627 11.05 13.9265 10.718 14.0641C10.3859 14.2016 10.0129 14.2016 9.68085 14.0641L8.51823 13.5825C8.18619 13.4453 7.81326 13.4455 7.48143 13.5832L6.31797 14.0645C5.98612 14.2017 5.61338 14.2016 5.28162 14.0642C4.94986 13.9267 4.68621 13.6632 4.54858 13.3316L4.06652 12.1677C3.92924 11.8357 3.66574 11.5718 3.33394 11.434L2.17048 10.9521C1.8386 10.8146 1.57488 10.5509 1.4373 10.2191C1.29971 9.88724 1.29953 9.51434 1.43678 9.18235L1.91835 8.01968C2.05554 7.68763 2.05526 7.31469 1.91757 6.98284L1.43669 5.81851C1.36851 5.65405 1.3334 5.47777 1.33337 5.29974C1.33335 5.12171 1.3684 4.94542 1.43652 4.78094C1.50465 4.61646 1.60452 4.46702 1.73042 4.34115C1.85632 4.21529 2.00579 4.11546 2.17028 4.04739L3.33291 3.5658C3.66462 3.42863 3.92836 3.16545 4.06624 2.83402L4.54816 1.67052C4.68569 1.33848 4.94949 1.07467 5.28152 0.937137C5.61355 0.7996 5.98662 0.7996 6.31865 0.937137L7.48127 1.41873C7.81331 1.55593 8.18624 1.55565 8.51808 1.41795L9.68202 0.937884C10.014 0.800424 10.387 0.800452 10.719 0.937962C11.0509 1.07547 11.3147 1.3392 11.4522 1.67116L11.9343 2.835L11.9342 2.83299Z" stroke="currentColor" stroke-width="1.33333" stroke-linecap="round" stroke-linejoin="round" />
    </symbol>
    <symbol id="bell" viewBox="0 0 20 23" fill="none">
      <path d="M7.35419 20.5C8.05933 21.1224 8.98557 21.5 10 21.5C11.0145 21.5 11.9407 21.1224 12.6458 20.5M16 7.5C16 5.9087 15.3679 4.38258 14.2427 3.25736C13.1174 2.13214 11.5913 1.5 10 1.5C8.40872 1.5 6.8826 2.13214 5.75738 3.25736C4.63216 4.38258 4.00002 5.9087 4.00002 7.5C4.00002 10.5902 3.22049 12.706 2.34968 14.1054C1.61515 15.2859 1.24788 15.8761 1.26134 16.0408C1.27626 16.2231 1.31488 16.2926 1.46179 16.4016C1.59448 16.5 2.19261 16.5 3.38887 16.5H16.6112C17.8074 16.5 18.4056 16.5 18.5382 16.4016C18.6852 16.2926 18.7238 16.2231 18.7387 16.0408C18.7522 15.8761 18.3849 15.2859 17.6504 14.1054C16.7795 12.706 16 10.5902 16 7.5Z" stroke="currentColor" stroke-width="2" stroke-linecap="round" stroke-linejoin="round" />
    </symbol>
    <symbol id="block" viewBox="0 0 20 20" fill="none">
      <path d="M4.10829 4.10768L15.8916 15.891M18.3333 9.99935C18.3333 14.6017 14.6023 18.3327 9.99996 18.3327C5.39759 18.3327 1.66663 14.6017 1.66663 9.99935C1.66663 5.39698 5.39759 1.66602 9.99996 1.66602C14.6023 1.66602 18.3333 5.39698 18.3333 9.99935Z" stroke="currentColor" stroke-width="1.66667" stroke-linecap="round" stroke-linejoin="round" />
    </symbol>
    <symbol id="bookmark" viewBox="0 0 12 14" fill="none">
      <path d="M1.3335 4.2C1.3335 3.0799 1.3335 2.51984 1.55148 2.09202C1.74323 1.71569 2.04919 1.40973 2.42552 1.21799C2.85334 1 3.41339 1 4.5335 1H7.46683C8.58693 1 9.14699 1 9.57481 1.21799C9.95114 1.40973 10.2571 1.71569 10.4488 2.09202C10.6668 2.51984 10.6668 3.0799 10.6668 4.2V13L6.00016 10.3333L1.3335 13V4.2Z" stroke="currentColor" stroke-width="1.33333" stroke-linecap="round" stroke-linejoin="round" />
    </symbol>
    <symbol id="check" viewBox="0 0 18 13" fill="none">
      <path d="M17 1L6 12L1 7" stroke="currentColor" stroke-width="2" stroke-linecap="round" stroke-linejoin="round" />
    </symbol>
    <symbol id="chevronDown" viewBox="0 0 24 24" fill="none">
      <path fill-rule="evenodd" clip-rule="evenodd" d="M5.29289 8.29289C5.68342 7.90237 6.31658 7.90237 6.70711 8.29289L12 13.5858L17.2929 8.29289C17.6834 7.90237 18.3166 7.90237 18.7071 8.29289C19.0976 8.68342 19.0976 9.31658 18.7071 9.70711L12.7071 15.7071C12.3166 16.0976 11.6834 16.0976 11.2929 15.7071L5.29289 9.70711C4.90237 9.31658 4.90237 8.68342 5.29289 8.29289Z" fill="currentColor" />
    </symbol>
    <symbol id="close" viewBox="0 0 8 8" fill="none">
      <path d="M7.33332 0.666992L0.666656 7.33366M0.666656 0.666992L7.33332 7.33366" stroke="currentColor" stroke-width="1.33333" stroke-linecap="round" stroke-linejoin="round" />
    </symbol>
    <symbol id="zap" viewBox="0 0 16 20" fill="none">
      <path d="M8.8333 1.70166L1.41118 10.6082C1.12051 10.957 0.975169 11.1314 0.972948 11.2787C0.971017 11.4068 1.02808 11.5286 1.12768 11.6091C1.24226 11.7017 1.46928 11.7017 1.92333 11.7017H7.99997L7.16663 18.3683L14.5888 9.46178C14.8794 9.11297 15.0248 8.93857 15.027 8.79128C15.0289 8.66323 14.9719 8.54141 14.8723 8.46092C14.7577 8.36833 14.5307 8.36833 14.0766 8.36833H7.99997L8.8333 1.70166Z" stroke="currentColor" stroke-width="1.66667" stroke-linecap="round" stroke-linejoin="round" />
    </symbol>
    <symbol id="zapFast" viewBox="0 0 23 20" fill="none">
      <path d="M8 15.5H2.5M5.5 10H1M8 4.5H3M16 1L9.40357 10.235C9.1116 10.6438 8.96562 10.8481 8.97194 11.0185C8.97744 11.1669 9.04858 11.3051 9.1661 11.3958C9.30108 11.5 9.55224 11.5 10.0546 11.5H15L14 19L20.5964 9.76499C20.8884 9.35624 21.0344 9.15187 21.0281 8.98147C21.0226 8.83312 20.9514 8.69489 20.8339 8.60418C20.6989 8.5 20.4478 8.5 19.9454 8.5H15L16 1Z" stroke="currentColor" stroke-width="2" stroke-linecap="round" stroke-linejoin="round" />
    </symbol>
    <symbol id="zapCircle" viewBox="0 0 33 32" fill="none">
      <path fill-rule="evenodd" clip-rule="evenodd" d="M16.5 1.33301C8.39986 1.33301 1.83337 7.8995 1.83337 15.9997C1.83337 24.0999 8.39986 30.6663 16.5 30.6663C24.6002 30.6663 31.1667 24.0999 31.1667 15.9997C31.1667 7.8995 24.6002 1.33301 16.5 1.33301ZM10.3155 16.3287L16.5 7.33301V13.9997H21.8056C22.4627 13.9997 22.7913 13.9997 22.9705 14.1364C23.1265 14.2555 23.2221 14.4372 23.2318 14.6333C23.243 14.8583 23.0569 15.1291 22.6845 15.6706L16.5 24.6663V17.9997H11.1944C10.5373 17.9997 10.2087 17.9997 10.0295 17.863C9.87353 17.7439 9.77791 17.5621 9.76818 17.3661C9.75699 17.141 9.94315 16.8702 10.3155 16.3287Z" fill="currentColor" fill-opacity="0.21" />
    </symbol>
    <symbol id="search" viewBox="0 0 20 21" fill="none">
      <path d="M19 19.5L14.65 15.15M17 9.5C17 13.9183 13.4183 17.5 9 17.5C4.58172 17.5 1 13.9183 1 9.5C1 5.08172 4.58172 1.5 9 1.5C13.4183 1.5 17 5.08172 17 9.5Z" stroke="currentColor" stroke-width="2" stroke-linecap="round" stroke-linejoin="round" />
    </symbol>
    <symbol id="envelope" viewBox="0 0 22 19" fill="none">
      <path d="M1 4.5L9.16492 10.2154C9.82609 10.6783 10.1567 10.9097 10.5163 10.9993C10.8339 11.0785 11.1661 11.0785 11.4837 10.9993C11.8433 10.9097 12.1739 10.6783 12.8351 10.2154L21 4.5M5.8 17.5H16.2C17.8802 17.5 18.7202 17.5 19.362 17.173C19.9265 16.8854 20.3854 16.4265 20.673 15.862C21 15.2202 21 14.3802 21 12.7V6.3C21 4.61984 21 3.77976 20.673 3.13803C20.3854 2.57354 19.9265 2.1146 19.362 1.82698C18.7202 1.5 17.8802 1.5 16.2 1.5H5.8C4.11984 1.5 3.27976 1.5 2.63803 1.82698C2.07354 2.1146 1.6146 2.57354 1.32698 3.13803C1 3.77976 1 4.61984 1 6.3V12.7C1 14.3802 1 15.2202 1.32698 15.862C1.6146 16.4265 2.07354 16.8854 2.63803 17.173C3.27976 17.5 4.11984 17.5 5.8 17.5Z" stroke="currentColor" stroke-width="2" stroke-linecap="round" stroke-linejoin="round" />
    </symbol>
    <symbol id="mute" viewBox="0 0 19 18" fill="none">
      <path d="M13.75 12.3333L17.9166 16.5M17.9166 12.3333L13.75 16.5M9.99996 11.9167H6.24996C5.08699 11.9167 4.5055 11.9167 4.03234 12.0602C2.96701 12.3834 2.13333 13.217 1.81016 14.2824C1.66663 14.7555 1.66663 15.337 1.66663 16.5M12.0833 5.25C12.0833 7.32107 10.4044 9 8.33329 9C6.26222 9 4.58329 7.32107 4.58329 5.25C4.58329 3.17893 6.26222 1.5 8.33329 1.5C10.4044 1.5 12.0833 3.17893 12.0833 5.25Z" stroke="currentColor" stroke-width="1.66667" stroke-linecap="round" stroke-linejoin="round" />
    </symbol>
    <symbol id="copy" viewBox="0 0 20 20" fill="none">
      <path d="M13.3333 13.3327V15.666C13.3333 16.5994 13.3333 17.0661 13.1516 17.4227C12.9918 17.7363 12.7369 17.9912 12.4233 18.151C12.0668 18.3327 11.6 18.3327 10.6666 18.3327H4.33329C3.39987 18.3327 2.93316 18.3327 2.57664 18.151C2.26304 17.9912 2.00807 17.7363 1.84828 17.4227C1.66663 17.0661 1.66663 16.5994 1.66663 15.666V9.33268C1.66663 8.39926 1.66663 7.93255 1.84828 7.57603C2.00807 7.26243 2.26304 7.00746 2.57664 6.84767C2.93316 6.66602 3.39987 6.66602 4.33329 6.66602H6.66663M9.33329 13.3327H15.6666C16.6 13.3327 17.0668 13.3327 17.4233 13.151C17.7369 12.9912 17.9918 12.7363 18.1516 12.4227C18.3333 12.0661 18.3333 11.5994 18.3333 10.666V4.33268C18.3333 3.39926 18.3333 2.93255 18.1516 2.57603C17.9918 2.26243 17.7369 2.00746 17.4233 1.84767C17.0668 1.66602 16.6 1.66602 15.6666 1.66602H9.33329C8.39987 1.66602 7.93316 1.66602 7.57664 1.84767C7.26304 2.00746 7.00807 2.26243 6.84828 2.57603C6.66663 2.93255 6.66663 3.39926 6.66663 4.33268V10.666C6.66663 11.5994 6.66663 12.0661 6.84828 12.4227C7.00807 12.7363 7.26304 12.9912 7.57664 13.151C7.93316 13.3327 8.39987 13.3327 9.33329 13.3327Z" stroke="currentColor" stroke-width="1.66667" stroke-linecap="round" stroke-linejoin="round" />
    </symbol>
    <symbol id="dislike" viewBox="0 0 19 20" fill="none">
      <path d="M13.1667 1.66667V10.8333M17.3333 8.16667V4.33334C17.3333 3.39992 17.3333 2.93321 17.1517 2.57669C16.9919 2.26308 16.7369 2.00812 16.4233 1.84833C16.0668 1.66667 15.6001 1.66667 14.6667 1.66667H5.76501C4.54711 1.66667 3.93816 1.66667 3.44632 1.88953C3.01284 2.08595 2.64442 2.40202 2.38437 2.8006C2.08931 3.25283 1.99672 3.8547 1.81153 5.05844L1.37563 7.89178C1.13137 9.47943 1.00925 10.2733 1.24484 10.8909C1.45162 11.4331 1.84054 11.8864 2.34494 12.1732C2.91961 12.5 3.72278 12.5 5.32912 12.5H6C6.46671 12.5 6.70007 12.5 6.87833 12.5908C7.03513 12.6707 7.16261 12.7982 7.24251 12.955C7.33334 13.1333 7.33334 13.3666 7.33334 13.8333V16.2785C7.33334 17.4133 8.25333 18.3333 9.3882 18.3333C9.65889 18.3333 9.90419 18.1739 10.0141 17.9266L12.8148 11.6252C12.9421 11.3385 13.0058 11.1952 13.1065 11.0902C13.1955 10.9973 13.3048 10.9263 13.4258 10.8827C13.5627 10.8333 13.7195 10.8333 14.0332 10.8333H14.6667C15.6001 10.8333 16.0668 10.8333 16.4233 10.6517C16.7369 10.4919 16.9919 10.2369 17.1517 9.92332C17.3333 9.5668 17.3333 9.10009 17.3333 8.16667Z" stroke="currentColor" stroke-width="1.66667" stroke-linecap="round" stroke-linejoin="round" />
    </symbol>
    <symbol id="dots" viewBox="0 0 4 16" fill="none">
      <path d="M1.99996 8.86865C2.4602 8.86865 2.83329 8.49556 2.83329 8.03532C2.83329 7.57508 2.4602 7.20199 1.99996 7.20199C1.53972 7.20199 1.16663 7.57508 1.16663 8.03532C1.16663 8.49556 1.53972 8.86865 1.99996 8.86865Z" stroke="currentColor" stroke-width="1.66667" stroke-linecap="round" stroke-linejoin="round" />
      <path d="M1.99996 3.03532C2.4602 3.03532 2.83329 2.66222 2.83329 2.20199C2.83329 1.74175 2.4602 1.36865 1.99996 1.36865C1.53972 1.36865 1.16663 1.74175 1.16663 2.20199C1.16663 2.66222 1.53972 3.03532 1.99996 3.03532Z" stroke="currentColor" stroke-width="1.66667" stroke-linecap="round" stroke-linejoin="round" />
      <path d="M1.99996 14.702C2.4602 14.702 2.83329 14.3289 2.83329 13.8687C2.83329 13.4084 2.4602 13.0353 1.99996 13.0353C1.53972 13.0353 1.16663 13.4084 1.16663 13.8687C1.16663 14.3289 1.53972 14.702 1.99996 14.702Z" stroke="currentColor" stroke-width="1.66667" stroke-linecap="round" stroke-linejoin="round" />
    </symbol>
    <symbol id="gear" viewBox="0 0 20 22" fill="none">
      <path d="M7.39504 18.3711L7.97949 19.6856C8.15323 20.0768 8.43676 20.4093 8.79571 20.6426C9.15466 20.8759 9.5736 21.0001 10.0017 21C10.4298 21.0001 10.8488 20.8759 11.2077 20.6426C11.5667 20.4093 11.8502 20.0768 12.0239 19.6856L12.6084 18.3711C12.8164 17.9047 13.1664 17.5159 13.6084 17.26C14.0532 17.0034 14.5677 16.8941 15.0784 16.9478L16.5084 17.1C16.934 17.145 17.3636 17.0656 17.7451 16.8713C18.1265 16.6771 18.4434 16.3763 18.6573 16.0056C18.8714 15.635 18.9735 15.2103 18.951 14.7829C18.9285 14.3555 18.7825 13.9438 18.5306 13.5978L17.6839 12.4344C17.3825 12.0171 17.2214 11.5148 17.2239 11C17.2238 10.4866 17.3864 9.98635 17.6884 9.57111L18.535 8.40778C18.7869 8.06175 18.933 7.65007 18.9554 7.22267C18.9779 6.79528 18.8759 6.37054 18.6617 6C18.4478 5.62923 18.1309 5.32849 17.7495 5.13423C17.3681 4.93997 16.9385 4.86053 16.5128 4.90556L15.0828 5.05778C14.5722 5.11141 14.0576 5.00212 13.6128 4.74556C13.1699 4.48825 12.8199 4.09736 12.6128 3.62889L12.0239 2.31444C11.8502 1.92317 11.5667 1.59072 11.2077 1.3574C10.8488 1.12408 10.4298 0.99993 10.0017 1C9.5736 0.99993 9.15466 1.12408 8.79571 1.3574C8.43676 1.59072 8.15323 1.92317 7.97949 2.31444L7.39504 3.62889C7.18797 4.09736 6.83792 4.48825 6.39504 4.74556C5.95026 5.00212 5.43571 5.11141 4.92504 5.05778L3.4906 4.90556C3.06493 4.86053 2.63534 4.93997 2.25391 5.13423C1.87249 5.32849 1.55561 5.62923 1.34171 6C1.12753 6.37054 1.02549 6.79528 1.04798 7.22267C1.07046 7.65007 1.2165 8.06175 1.46838 8.40778L2.31504 9.57111C2.61698 9.98635 2.77958 10.4866 2.77949 11C2.77958 11.5134 2.61698 12.0137 2.31504 12.4289L1.46838 13.5922C1.2165 13.9382 1.07046 14.3499 1.04798 14.7773C1.02549 15.2047 1.12753 15.6295 1.34171 16C1.55582 16.3706 1.87274 16.6712 2.25411 16.8654C2.63548 17.0596 3.06496 17.1392 3.4906 17.0944L4.9206 16.9422C5.43127 16.8886 5.94581 16.9979 6.3906 17.2544C6.83513 17.511 7.18681 17.902 7.39504 18.3711Z" stroke="currentColor" stroke-width="2" stroke-linecap="round" stroke-linejoin="round" />
      <path d="M9.99992 14C11.6568 14 12.9999 12.6569 12.9999 11C12.9999 9.34315 11.6568 8 9.99992 8C8.34307 8 6.99992 9.34315 6.99992 11C6.99992 12.6569 8.34307 14 9.99992 14Z" stroke="currentColor" stroke-width="2" stroke-linecap="round" stroke-linejoin="round" />
    </symbol>
    <symbol id="heart" viewBox="0 0 20 18" fill="none">
      <path fill-rule="evenodd" clip-rule="evenodd" d="M9.99425 3.315C8.32813 1.36716 5.54975 0.843192 3.4622 2.62683C1.37466 4.41048 1.08077 7.39264 2.72012 9.50216C4.08314 11.2561 8.2081 14.9552 9.56004 16.1525C9.7113 16.2865 9.78692 16.3534 9.87514 16.3798C9.95213 16.4027 10.0364 16.4027 10.1134 16.3798C10.2016 16.3534 10.2772 16.2865 10.4285 16.1525C11.7804 14.9552 15.9054 11.2561 17.2684 9.50216C18.9077 7.39264 18.6497 4.39171 16.5263 2.62683C14.4029 0.861954 11.6604 1.36716 9.99425 3.315Z" stroke="currentColor" stroke-width="1.66667" stroke-linecap="round" stroke-linejoin="round" />
    </symbol>
    <symbol id="json" viewBox="0 0 22 18" fill="none">
      <path d="M17.5708 17C18.8328 17 19.8568 15.977 19.8568 14.714V10.143L20.9998 9L19.8568 7.857V3.286C19.8568 2.023 18.8338 1 17.5708 1M4.429 1C3.166 1 2.143 2.023 2.143 3.286V7.857L1 9L2.143 10.143V14.714C2.143 15.977 3.166 17 4.429 17" stroke="currentColor" stroke-width="2" stroke-linecap="round" stroke-linejoin="round" />
    </symbol>
    <symbol id="link" viewBox="0 0 22 22" fill="none">
      <path d="M8.99996 12C9.42941 12.5742 9.97731 13.0492 10.6065 13.393C11.2357 13.7367 11.9315 13.9411 12.6466 13.9924C13.3617 14.0436 14.0795 13.9404 14.7513 13.6898C15.4231 13.4392 16.0331 13.0471 16.54 12.54L19.54 9.54003C20.4507 8.59702 20.9547 7.334 20.9433 6.02302C20.9319 4.71204 20.4061 3.45797 19.479 2.53093C18.552 1.60389 17.2979 1.07805 15.987 1.06666C14.676 1.05526 13.413 1.55924 12.47 2.47003L10.75 4.18003M13 10C12.5705 9.4259 12.0226 8.95084 11.3934 8.60709C10.7642 8.26333 10.0684 8.05891 9.3533 8.00769C8.63816 7.95648 7.92037 8.05966 7.24861 8.31025C6.57685 8.56083 5.96684 8.95296 5.45996 9.46003L2.45996 12.46C1.54917 13.403 1.04519 14.666 1.05659 15.977C1.06798 17.288 1.59382 18.5421 2.52086 19.4691C3.4479 20.3962 4.70197 20.922 6.01295 20.9334C7.32393 20.9448 8.58694 20.4408 9.52995 19.53L11.24 17.82" stroke="currentColor" stroke-width="2" stroke-linecap="round" stroke-linejoin="round" />
    </symbol>
    <symbol id="logout" viewBox="0 0 22 20" fill="none">
      <path d="M17 6L21 10M21 10L17 14M21 10H8M14 2.20404C12.7252 1.43827 11.2452 1 9.66667 1C4.8802 1 1 5.02944 1 10C1 14.9706 4.8802 19 9.66667 19C11.2452 19 12.7252 18.5617 14 17.796" stroke="currentColor" stroke-width="2" stroke-linecap="round" stroke-linejoin="round" />
    </symbol>
    <symbol id="pin" viewBox="0 0 16 16" fill="none">
      <path fill-rule="evenodd" clip-rule="evenodd" d="M10.9224 1.60798C10.752 1.43747 10.5936 1.27906 10.4521 1.16112C10.3041 1.03772 10.1054 0.897647 9.84544 0.844944C9.50107 0.775136 9.14307 0.84408 8.84926 1.03679C8.62745 1.18228 8.49504 1.38611 8.40342 1.55566C8.31586 1.7177 8.22763 1.92361 8.13268 2.14523L7.4096 3.83242C7.39337 3.8703 7.38541 3.88876 7.37934 3.90209L7.37892 3.903L7.37824 3.90372C7.36811 3.91431 7.35393 3.92856 7.32479 3.9577L6.28419 4.99829C6.23867 5.04382 6.21617 5.06618 6.19929 5.08193L6.19809 5.08305L6.19649 5.08343C6.17402 5.08874 6.14294 5.09505 6.0798 5.10768L3.60856 5.60192C3.31543 5.66053 3.05184 5.71323 2.84493 5.77469C2.63787 5.83621 2.37038 5.93737 2.16809 6.16535C1.90934 6.45696 1.79118 6.84722 1.84472 7.23339C1.88657 7.53529 2.05302 7.76784 2.19118 7.93388C2.32925 8.09979 2.51933 8.28985 2.73071 8.50121L4.64158 10.4121L1.34175 13.7119C1.0814 13.9723 1.0814 14.3944 1.34175 14.6547C1.6021 14.9151 2.02421 14.9151 2.28456 14.6547L5.58439 11.3549L7.49532 13.2658C7.70668 13.4772 7.89673 13.6673 8.06265 13.8053C8.22869 13.9435 8.46123 14.11 8.76314 14.1518C9.14931 14.2053 9.53956 14.0872 9.83117 13.8284C10.0592 13.6261 10.1603 13.3587 10.2218 13.1516C10.2833 12.9447 10.336 12.6811 10.3946 12.388L10.8889 9.91673C10.9015 9.85359 10.9078 9.82251 10.9131 9.80003L10.9135 9.79844L10.9146 9.79724C10.9303 9.78035 10.9527 9.75786 10.9982 9.71233L12.0388 8.67174C12.068 8.6426 12.0822 8.62841 12.0928 8.61829L12.0935 8.6176L12.0944 8.61719C12.1078 8.61111 12.1262 8.60316 12.1641 8.58692L13.8513 7.86385C14.0729 7.7689 14.2788 7.68066 14.4409 7.5931C14.6104 7.50149 14.8142 7.36908 14.9597 7.14726C15.1524 6.85346 15.2214 6.49545 15.1516 6.15109C15.0989 5.89111 14.9588 5.69247 14.8354 5.54443C14.7175 5.40295 14.5591 5.24456 14.3885 5.07409L10.9224 1.60798Z" fill="currentColor" />
    </symbol>
    <symbol id="plus" viewBox="0 0 16 16" fill="none">
      <path d="M8 1V15M1 8H15" stroke="currentColor" stroke-width="2" stroke-linecap="round" stroke-linejoin="round" />
    </symbol>
    <symbol id="profile" viewBox="0 0 22 22" fill="none">
      <path d="M14 8H14.01M8 8H8.01M21 11C21 16.5228 16.5228 21 11 21C5.47715 21 1 16.5228 1 11C1 5.47715 5.47715 1 11 1C16.5228 1 21 5.47715 21 11ZM14.5 8C14.5 8.27614 14.2761 8.5 14 8.5C13.7239 8.5 13.5 8.27614 13.5 8C13.5 7.72386 13.7239 7.5 14 7.5C14.2761 7.5 14.5 7.72386 14.5 8ZM8.5 8C8.5 8.27614 8.27614 8.5 8 8.5C7.72386 8.5 7.5 8.27614 7.5 8C7.5 7.72386 7.72386 7.5 8 7.5C8.27614 7.5 8.5 7.72386 8.5 8ZM11 16.5C13.5005 16.5 15.5 14.667 15.5 13H6.5C6.5 14.667 8.4995 16.5 11 16.5Z" stroke="currentColor" stroke-width="2" stroke-linecap="round" stroke-linejoin="round" />
    </symbol>
    <symbol id="qr" viewBox="0 0 20 20" fill="none">
      <path d="M4.5 4.5H4.51M15.5 4.5H15.51M4.5 15.5H4.51M11 11H11.01M15.5 15.5H15.51M15 19H19V15M12 14.5V19M19 12H14.5M13.6 8H17.4C17.9601 8 18.2401 8 18.454 7.89101C18.6422 7.79513 18.7951 7.64215 18.891 7.45399C19 7.24008 19 6.96005 19 6.4V2.6C19 2.03995 19 1.75992 18.891 1.54601C18.7951 1.35785 18.6422 1.20487 18.454 1.10899C18.2401 1 17.9601 1 17.4 1H13.6C13.0399 1 12.7599 1 12.546 1.10899C12.3578 1.20487 12.2049 1.35785 12.109 1.54601C12 1.75992 12 2.03995 12 2.6V6.4C12 6.96005 12 7.24008 12.109 7.45399C12.2049 7.64215 12.3578 7.79513 12.546 7.89101C12.7599 8 13.0399 8 13.6 8ZM2.6 8H6.4C6.96005 8 7.24008 8 7.45399 7.89101C7.64215 7.79513 7.79513 7.64215 7.89101 7.45399C8 7.24008 8 6.96005 8 6.4V2.6C8 2.03995 8 1.75992 7.89101 1.54601C7.79513 1.35785 7.64215 1.20487 7.45399 1.10899C7.24008 1 6.96005 1 6.4 1H2.6C2.03995 1 1.75992 1 1.54601 1.10899C1.35785 1.20487 1.20487 1.35785 1.10899 1.54601C1 1.75992 1 2.03995 1 2.6V6.4C1 6.96005 1 7.24008 1.10899 7.45399C1.20487 7.64215 1.35785 7.79513 1.54601 7.89101C1.75992 8 2.03995 8 2.6 8ZM2.6 19H6.4C6.96005 19 7.24008 19 7.45399 18.891C7.64215 18.7951 7.79513 18.6422 7.89101 18.454C8 18.2401 8 17.9601 8 17.4V13.6C8 13.0399 8 12.7599 7.89101 12.546C7.79513 12.3578 7.64215 12.2049 7.45399 12.109C7.24008 12 6.96005 12 6.4 12H2.6C2.03995 12 1.75992 12 1.54601 12.109C1.35785 12.2049 1.20487 12.3578 1.10899 12.546C1 12.7599 1 13.0399 1 13.6V17.4C1 17.9601 1 18.2401 1.10899 18.454C1.20487 18.6422 1.35785 18.7951 1.54601 18.891C1.75992 19 2.03995 19 2.6 19Z" stroke="currentColor" stroke-width="2" stroke-linecap="round" stroke-linejoin="round" />
    </symbol>
    <symbol id="read" viewBox="0 0 22 22" fill="none">
      <path d="M14.9996 2V7M14.9996 7L19.9996 7M14.9996 7L20.9996 1M10.2266 11.8631C9.02506 10.6615 8.07627 9.30285 7.38028 7.85323C7.32041 7.72854 7.29048 7.66619 7.26748 7.5873C7.18576 7.30695 7.24446 6.96269 7.41447 6.72526C7.46231 6.65845 7.51947 6.60129 7.63378 6.48698C7.98338 6.13737 8.15819 5.96257 8.27247 5.78679C8.70347 5.1239 8.70347 4.26932 8.27247 3.60643C8.15819 3.43065 7.98338 3.25585 7.63378 2.90624L7.43891 2.71137C6.90747 2.17993 6.64174 1.91421 6.35636 1.76987C5.7888 1.4828 5.11854 1.4828 4.55098 1.76987C4.2656 1.91421 3.99987 2.17993 3.46843 2.71137L3.3108 2.86901C2.78117 3.39863 2.51636 3.66344 2.31411 4.02348C2.08969 4.42298 1.92833 5.04347 1.9297 5.5017C1.93092 5.91464 2.01103 6.19687 2.17124 6.76131C3.03221 9.79471 4.65668 12.6571 7.04466 15.045C9.43264 17.433 12.295 19.0575 15.3284 19.9185C15.8928 20.0787 16.1751 20.1588 16.588 20.16C17.0462 20.1614 17.6667 20 18.0662 19.7756C18.4263 19.5733 18.6911 19.3085 19.2207 18.7789L19.3783 18.6213C19.9098 18.0898 20.1755 17.8241 20.3198 17.5387C20.6069 16.9712 20.6069 16.3009 20.3198 15.7333C20.1755 15.448 19.9098 15.1822 19.3783 14.6508L19.1835 14.4559C18.8339 14.1063 18.6591 13.9315 18.4833 13.8172C17.8204 13.3862 16.9658 13.3862 16.3029 13.8172C16.1271 13.9315 15.9523 14.1063 15.6027 14.4559C15.4884 14.5702 15.4313 14.6274 15.3644 14.6752C15.127 14.8453 14.7828 14.904 14.5024 14.8222C14.4235 14.7992 14.3612 14.7693 14.2365 14.7094C12.7869 14.0134 11.4282 13.0646 10.2266 11.8631Z" stroke="currentColor" stroke-width="2" stroke-linecap="round" stroke-linejoin="round" />
    </symbol>
    <symbol id="relay" viewBox="0 0 22 22" fill="none">
      <path d="M21 9.5L20.5256 5.70463C20.3395 4.21602 20.2465 3.47169 19.8961 2.9108C19.5875 2.41662 19.1416 2.02301 18.613 1.77804C18.013 1.5 17.2629 1.5 15.7626 1.5H6.23735C4.73714 1.5 3.98704 1.5 3.38702 1.77804C2.85838 2.02301 2.4125 2.41662 2.10386 2.9108C1.75354 3.47169 1.6605 4.21601 1.47442 5.70463L1 9.5M4.5 13.5H17.5M4.5 13.5C2.567 13.5 1 11.933 1 10C1 8.067 2.567 6.5 4.5 6.5H17.5C19.433 6.5 21 8.067 21 10C21 11.933 19.433 13.5 17.5 13.5M4.5 13.5C2.567 13.5 1 15.067 1 17C1 18.933 2.567 20.5 4.5 20.5H17.5C19.433 20.5 21 18.933 21 17C21 15.067 19.433 13.5 17.5 13.5M5 10H5.01M5 17H5.01M11 10H17M11 17H17" stroke="currentColor" stroke-width="2" stroke-linecap="round" stroke-linejoin="round" />
    </symbol>
    <symbol id="reply" viewBox="0 0 18 18" fill="none">
      <path d="M1.5 5.5C1.5 4.09987 1.5 3.3998 1.77248 2.86502C2.01217 2.39462 2.39462 2.01217 2.86502 1.77248C3.3998 1.5 4.09987 1.5 5.5 1.5H12.5C13.9001 1.5 14.6002 1.5 15.135 1.77248C15.6054 2.01217 15.9878 2.39462 16.2275 2.86502C16.5 3.3998 16.5 4.09987 16.5 5.5V10C16.5 11.4001 16.5 12.1002 16.2275 12.635C15.9878 13.1054 15.6054 13.4878 15.135 13.7275C14.6002 14 13.9001 14 12.5 14H10.4031C9.88308 14 9.62306 14 9.37435 14.051C9.15369 14.0963 8.94017 14.1712 8.73957 14.2737C8.51347 14.3892 8.31043 14.5517 7.90434 14.8765L5.91646 16.4668C5.56973 16.7442 5.39636 16.8829 5.25045 16.8831C5.12356 16.8832 5.00352 16.8255 4.92436 16.7263C4.83333 16.6123 4.83333 16.3903 4.83333 15.9463V14C4.05836 14 3.67087 14 3.35295 13.9148C2.49022 13.6836 1.81635 13.0098 1.58519 12.147C1.5 11.8291 1.5 11.4416 1.5 10.6667V5.5Z" stroke="currentColor" stroke-width="1.66667" stroke-linecap="round" stroke-linejoin="round" />
    </symbol>
    <symbol id="repost" viewBox="0 0 22 20" fill="none">
      <path d="M1 12C1 12 1.12132 12.8492 4.63604 16.364C8.15076 19.8787 13.8492 19.8787 17.364 16.364C18.6092 15.1187 19.4133 13.5993 19.7762 12M1 12V18M1 12H7M21 8C21 8 20.8787 7.15076 17.364 3.63604C13.8492 0.12132 8.15076 0.12132 4.63604 3.63604C3.39076 4.88131 2.58669 6.40072 2.22383 8M21 8V2M21 8H15" stroke="currentColor" stroke-width="2" stroke-linecap="round" stroke-linejoin="round" />
    </symbol>
    <symbol id="share" viewBox="0 0 18 16" fill="none">
      <path d="M16.3261 8.50715C16.5296 8.33277 16.6313 8.24559 16.6686 8.14184C16.7013 8.05078 16.7013 7.95117 16.6686 7.86011C16.6313 7.75636 16.5296 7.66918 16.3261 7.4948L9.26719 1.44429C8.917 1.14412 8.74191 0.99404 8.59367 0.990363C8.46483 0.987167 8.34177 1.04377 8.26035 1.14367C8.16667 1.25861 8.16667 1.48923 8.16667 1.95045V5.52984C6.38777 5.84105 4.75966 6.74244 3.54976 8.09586C2.23069 9.5714 1.50103 11.4809 1.5 13.4601V13.9701C2.37445 12.9167 3.46626 12.0647 4.70063 11.4726C5.78891 10.9505 6.96535 10.6412 8.16667 10.5597V14.0515C8.16667 14.5127 8.16667 14.7433 8.26035 14.8583C8.34177 14.9582 8.46483 15.0148 8.59367 15.0116C8.74191 15.0079 8.917 14.8578 9.26719 14.5577L16.3261 8.50715Z" stroke="currentColor" stroke-width="1.66667" stroke-linecap="round" stroke-linejoin="round" />
    </symbol>
    <symbol id="translate" viewBox="0 0 20 18" fill="none">
      <path d="M10.7608 13.1667H16.7391M10.7608 13.1667L9.16663 16.5M10.7608 13.1667L13.1485 8.17419C13.3409 7.77189 13.4371 7.57075 13.5688 7.50718C13.6832 7.4519 13.8167 7.4519 13.9311 7.50718C14.0628 7.57075 14.159 7.77189 14.3514 8.17419L16.7391 13.1667M16.7391 13.1667L18.3333 16.5M1.66663 3.16667H6.66663M6.66663 3.16667H9.58329M6.66663 3.16667V1.5M9.58329 3.16667H11.6666M9.58329 3.16667C9.16984 5.63107 8.21045 7.86349 6.80458 9.73702M8.33329 10.6667C7.82285 10.4373 7.30217 10.1184 6.80458 9.73702M6.80458 9.73702C5.67748 8.87314 4.66893 7.68886 4.16663 6.5M6.80458 9.73702C5.46734 11.5191 3.72615 12.9765 1.66663 14" stroke="currentColor" stroke-width="1.66667" stroke-linecap="round" stroke-linejoin="round" />
    </symbol>
    <symbol id="trash" viewBox="0 0 20 22" fill="none">
      <path d="M14 5V4.2C14 3.0799 14 2.51984 13.782 2.09202C13.5903 1.71569 13.2843 1.40973 12.908 1.21799C12.4802 1 11.9201 1 10.8 1H9.2C8.07989 1 7.51984 1 7.09202 1.21799C6.71569 1.40973 6.40973 1.71569 6.21799 2.09202C6 2.51984 6 3.0799 6 4.2V5M1 5H19M17 5V16.2C17 17.8802 17 18.7202 16.673 19.362C16.3854 19.9265 15.9265 20.3854 15.362 20.673C14.7202 21 13.8802 21 12.2 21H7.8C6.11984 21 5.27976 21 4.63803 20.673C4.07354 20.3854 3.6146 19.9265 3.32698 19.362C3 18.7202 3 17.8802 3 16.2V5" stroke="currentColor" stroke-width="2" stroke-linecap="round" stroke-linejoin="round" />
    </symbol>
    <symbol id="write" viewBox="0 0 22 22" fill="none">
      <path d="M20.9996 6V1M20.9996 1H15.9996M20.9996 1L14.9996 7M10.2266 11.8631C9.02506 10.6615 8.07627 9.30285 7.38028 7.85323C7.32041 7.72854 7.29048 7.66619 7.26748 7.5873C7.18576 7.30695 7.24446 6.96269 7.41447 6.72526C7.46231 6.65845 7.51947 6.60129 7.63378 6.48698C7.98338 6.13737 8.15819 5.96257 8.27247 5.78679C8.70347 5.1239 8.70347 4.26932 8.27247 3.60643C8.15819 3.43065 7.98338 3.25585 7.63378 2.90624L7.43891 2.71137C6.90747 2.17993 6.64174 1.91421 6.35636 1.76987C5.7888 1.4828 5.11854 1.4828 4.55098 1.76987C4.2656 1.91421 3.99987 2.17993 3.46843 2.71137L3.3108 2.86901C2.78117 3.39863 2.51636 3.66344 2.31411 4.02348C2.08969 4.42298 1.92833 5.04347 1.9297 5.5017C1.93092 5.91464 2.01103 6.19687 2.17124 6.76131C3.03221 9.79471 4.65668 12.6571 7.04466 15.045C9.43264 17.433 12.295 19.0575 15.3284 19.9185C15.8928 20.0787 16.1751 20.1588 16.588 20.16C17.0462 20.1614 17.6667 20 18.0662 19.7756C18.4263 19.5733 18.6911 19.3085 19.2207 18.7789L19.3783 18.6213C19.9098 18.0898 20.1755 17.8241 20.3198 17.5387C20.6069 16.9712 20.6069 16.3009 20.3198 15.7333C20.1755 15.448 19.9098 15.1822 19.3783 14.6508L19.1835 14.4559C18.8339 14.1063 18.6591 13.9315 18.4833 13.8172C17.8204 13.3862 16.9658 13.3862 16.3029 13.8172C16.1271 13.9315 15.9523 14.1063 15.6027 14.4559C15.4884 14.5702 15.4313 14.6274 15.3644 14.6752C15.127 14.8453 14.7828 14.904 14.5024 14.8222C14.4235 14.7992 14.3612 14.7693 14.2365 14.7094C12.7869 14.0134 11.4282 13.0646 10.2266 11.8631Z" stroke="currentColor" stroke-width="2" stroke-linecap="round" stroke-linejoin="round" />
    </symbol>
    <symbol id="bitcoin" viewBox="0 0 16 22" fill="none">
      <path d="M5.5 1V3M5.5 19V21M9.5 1V3M9.5 19V21M3.5 3H10C12.2091 3 14 4.79086 14 7C14 9.20914 12.2091 11 10 11H3.5H11C13.2091 11 15 12.7909 15 15C15 17.2091 13.2091 19 11 19H3.5M3.5 3H1.5M3.5 3V19M3.5 19H1.5" stroke="currentColor" stroke-width="2" stroke-linecap="round" stroke-linejoin="round" />
    </symbol>
    <symbol id="lightbulb" viewBox="0 0 22 22" fill="none">
      <path d="M9 16.6586V19C9 20.1046 9.89543 21 11 21C12.1046 21 13 20.1046 13 19V16.6586M11 1V2M2 11H1M4.5 4.5L3.8999 3.8999M17.5 4.5L18.1002 3.8999M21 11H20M17 11C17 14.3137 14.3137 17 11 17C7.68629 17 5 14.3137 5 11C5 7.68629 7.68629 5 11 5C14.3137 5 17 7.68629 17 11Z" stroke="currentColor" stroke-width="2" stroke-linecap="round" stroke-linejoin="round" />
    </symbol>
    <symbol id="openeye" viewBox="0 0 24 24" fill="none">
      <path d="M1.42012 8.71318C1.28394 8.49754 1.21584 8.38972 1.17772 8.22342C1.14909 8.0985 1.14909 7.9015 1.17772 7.77658C1.21584 7.61028 1.28394 7.50246 1.42012 7.28682C2.54553 5.50484 5.8954 1 11.0004 1C16.1054 1 19.4553 5.50484 20.5807 7.28682C20.7169 7.50246 20.785 7.61028 20.8231 7.77658C20.8517 7.9015 20.8517 8.0985 20.8231 8.22342C20.785 8.38972 20.7169 8.49754 20.5807 8.71318C19.4553 10.4952 16.1054 15 11.0004 15C5.8954 15 2.54553 10.4952 1.42012 8.71318Z" stroke="currentColor" stroke-width="2" stroke-linecap="round" stroke-linejoin="round" />
      <path d="M11.0004 11C12.6573 11 14.0004 9.65685 14.0004 8C14.0004 6.34315 12.6573 5 11.0004 5C9.34355 5 8.0004 6.34315 8.0004 8C8.0004 9.65685 9.34355 11 11.0004 11Z" stroke="currentColor" stroke-width="2" stroke-linecap="round" stroke-linejoin="round" />
    </symbol>
    <symbol id="closedeye" viewBox="0 0 24 24" fill="none">
      <path d="M9.74294 3.09232C10.1494 3.03223 10.5686 3 11.0004 3C16.1054 3 19.4553 7.50484 20.5807 9.28682C20.7169 9.5025 20.785 9.61034 20.8231 9.77667C20.8518 9.90159 20.8517 10.0987 20.8231 10.2236C20.7849 10.3899 20.7164 10.4985 20.5792 10.7156C20.2793 11.1901 19.8222 11.8571 19.2165 12.5805M5.72432 4.71504C3.56225 6.1817 2.09445 8.21938 1.42111 9.28528C1.28428 9.50187 1.21587 9.61016 1.17774 9.77648C1.1491 9.9014 1.14909 10.0984 1.17771 10.2234C1.21583 10.3897 1.28393 10.4975 1.42013 10.7132C2.54554 12.4952 5.89541 17 11.0004 17C13.0588 17 14.8319 16.2676 16.2888 15.2766M2.00042 1L20.0004 19M8.8791 7.87868C8.3362 8.42157 8.00042 9.17157 8.00042 10C8.00042 11.6569 9.34356 13 11.0004 13C11.8288 13 12.5788 12.6642 13.1217 12.1213" stroke="currentColor" stroke-width="2" stroke-linecap="round" stroke-linejoin="round" />
    </symbol>
    <symbol id="pie-chart" viewBox="0 0 22 22" fill="none">
      <path d="M20.2104 14.8901C19.5742 16.3946 18.5792 17.7203 17.3123 18.7514C16.0454 19.7825 14.5452 20.4875 12.9428 20.8048C11.3405 21.1222 9.68483 21.0422 8.12055 20.5719C6.55627 20.1015 5.13103 19.2551 3.96942 18.1067C2.80782 16.9583 1.94522 15.5428 1.45704 13.984C0.968859 12.4252 0.869965 10.7706 1.169 9.1647C1.46804 7.55885 2.1559 6.0507 3.17245 4.7721C4.189 3.4935 5.50329 2.48339 7.0004 1.83007M20.2392 7.17323C20.6395 8.1397 20.8851 9.16143 20.9684 10.2009C20.989 10.4577 20.9993 10.5861 20.9483 10.7018C20.9057 10.7984 20.8213 10.8898 20.7284 10.94C20.6172 11.0001 20.4783 11.0001 20.2004 11.0001H11.8004C11.5204 11.0001 11.3804 11.0001 11.2734 10.9456C11.1793 10.8976 11.1028 10.8211 11.0549 10.7271C11.0004 10.6201 11.0004 10.4801 11.0004 10.2001V1.80007C11.0004 1.5222 11.0004 1.38327 11.0605 1.27205C11.1107 1.17915 11.2021 1.09476 11.2987 1.05216C11.4144 1.00117 11.5428 1.01146 11.7996 1.03205C12.839 1.11539 13.8608 1.36095 14.8272 1.76127C16.0405 2.26382 17.1429 3.00042 18.0715 3.929C19.0001 4.85759 19.7367 5.95998 20.2392 7.17323Z" stroke="currentColor" stroke-width="2" stroke-linecap="round" stroke-linejoin="round" />
    </symbol>
    <symbol id="diamond" viewBox="0 0 22 20" fill="none">
      <path d="M1.49954 7H20.4995M8.99954 1L6.99954 7L10.9995 18.5L14.9995 7L12.9995 1M11.6141 18.2625L20.5727 7.51215C20.7246 7.32995 20.8005 7.23885 20.8295 7.13717C20.8551 7.04751 20.8551 6.95249 20.8295 6.86283C20.8005 6.76114 20.7246 6.67005 20.5727 6.48785L16.2394 1.28785C16.1512 1.18204 16.1072 1.12914 16.0531 1.09111C16.0052 1.05741 15.9518 1.03238 15.8953 1.01717C15.8314 1 15.7626 1 15.6248 1H6.37424C6.2365 1 6.16764 1 6.10382 1.01717C6.04728 1.03238 5.99385 1.05741 5.94596 1.09111C5.89192 1.12914 5.84783 1.18204 5.75966 1.28785L1.42633 6.48785C1.2745 6.67004 1.19858 6.76114 1.16957 6.86283C1.144 6.95249 1.144 7.04751 1.16957 7.13716C1.19858 7.23885 1.2745 7.32995 1.42633 7.51215L10.385 18.2625C10.596 18.5158 10.7015 18.6424 10.8279 18.6886C10.9387 18.7291 11.0603 18.7291 11.1712 18.6886C11.2975 18.6424 11.4031 18.5158 11.6141 18.2625Z" stroke="currentColor" stroke-width="2" stroke-linecap="round" stroke-linejoin="round" />
    </symbol>
    <symbol id="wallet" viewBox="0 0 22 18" fill="none">
      <path d="M19 6.5V4.2C19 3.0799 19 2.51984 18.782 2.09202C18.5903 1.7157 18.2843 1.40974 17.908 1.21799C17.4802 1 16.9201 1 15.8 1H4.2C3.0799 1 2.51984 1 2.09202 1.21799C1.7157 1.40973 1.40973 1.71569 1.21799 2.09202C1 2.51984 1 3.0799 1 4.2V13.8C1 14.9201 1 15.4802 1.21799 15.908C1.40973 16.2843 1.71569 16.5903 2.09202 16.782C2.51984 17 3.07989 17 4.2 17L15.8 17C16.9201 17 17.4802 17 17.908 16.782C18.2843 16.5903 18.5903 16.2843 18.782 15.908C19 15.4802 19 14.9201 19 13.8V11.5M14 9C14 8.53535 14 8.30302 14.0384 8.10982C14.1962 7.31644 14.8164 6.69624 15.6098 6.53843C15.803 6.5 16.0353 6.5 16.5 6.5H18.5C18.9647 6.5 19.197 6.5 19.3902 6.53843C20.1836 6.69624 20.8038 7.31644 20.9616 8.10982C21 8.30302 21 8.53535 21 9C21 9.46466 21 9.69698 20.9616 9.89018C20.8038 10.6836 20.1836 11.3038 19.3902 11.4616C19.197 11.5 18.9647 11.5 18.5 11.5H16.5C16.0353 11.5 15.803 11.5 15.6098 11.4616C14.8164 11.3038 14.1962 10.6836 14.0384 9.89018C14 9.69698 14 9.46465 14 9Z" stroke="currentColor" stroke-width="2" stroke-linecap="round" stroke-linejoin="round" />
    </symbol>
    <symbol id="code-circle" viewBox="0 0 22 22" fill="none">
      <path d="M13 16L16 13L13 10M9 6L6 9L9 12M21 11C21 16.5228 16.5228 21 11 21C5.47715 21 1 16.5228 1 11C1 5.47715 5.47715 1 11 1C16.5228 1 21 5.47715 21 11Z" stroke="currentColor" stroke-width="2" stroke-linecap="round" stroke-linejoin="round"/>
    </symbol>
    <symbol id="key" viewBox="0 0 20 20" fill="none">
      <path d="M15 6.99994C15 6.48812 14.8047 5.9763 14.4142 5.58579C14.0237 5.19526 13.5118 5 13 5M13 13C16.3137 13 19 10.3137 19 7C19 3.68629 16.3137 1 13 1C9.68629 1 7 3.68629 7 7C7 7.27368 7.01832 7.54308 7.05381 7.80704C7.11218 8.24118 7.14136 8.45825 7.12172 8.59559C7.10125 8.73865 7.0752 8.81575 7.00469 8.9419C6.937 9.063 6.81771 9.18229 6.57913 9.42087L1.46863 14.5314C1.29568 14.7043 1.2092 14.7908 1.14736 14.8917C1.09253 14.9812 1.05213 15.0787 1.02763 15.1808C1 15.2959 1 15.4182 1 15.6627V17.4C1 17.9601 1 18.2401 1.10899 18.454C1.20487 18.6422 1.35785 18.7951 1.54601 18.891C1.75992 19 2.03995 19 2.6 19H5V17H7V15H9L10.5791 13.4209C10.8177 13.1823 10.937 13.063 11.0581 12.9953C11.1843 12.9248 11.2613 12.8987 11.4044 12.8783C11.5417 12.8586 11.7588 12.8878 12.193 12.9462C12.4569 12.9817 12.7263 13 13 13Z" stroke="currentColor" stroke-width="2" stroke-linecap="round" stroke-linejoin="round"/>
    </symbol>
    <symbol id="user" viewBox="0 0 18 20" fill="none">
      <path d="M17 19C17 17.6044 17 16.9067 16.8278 16.3389C16.44 15.0605 15.4395 14.06 14.1611 13.6722C13.5933 13.5 12.8956 13.5 11.5 13.5H6.5C5.10444 13.5 4.40665 13.5 3.83886 13.6722C2.56045 14.06 1.56004 15.0605 1.17224 16.3389C1 16.9067 1 17.6044 1 19M13.5 5.5C13.5 7.98528 11.4853 10 9 10C6.51472 10 4.5 7.98528 4.5 5.5C4.5 3.01472 6.51472 1 9 1C11.4853 1 13.5 3.01472 13.5 5.5Z" stroke="currentColor" stroke-width="2" stroke-linecap="round" stroke-linejoin="round"/>
    </symbol>
    <symbol id="camera-plus" viewBox="0 0 22 21" fill="none">
      <path d="M21 10.5V13.6C21 15.8402 21 16.9603 20.564 17.816C20.1805 18.5686 19.5686 19.1805 18.816 19.564C17.9603 20 16.8402 20 14.6 20H7.4C5.15979 20 4.03969 20 3.18404 19.564C2.43139 19.1805 1.81947 18.5686 1.43597 17.816C1 16.9603 1 15.8402 1 13.6V8.4C1 6.15979 1 5.03969 1.43597 4.18404C1.81947 3.43139 2.43139 2.81947 3.18404 2.43597C4.03969 2 5.15979 2 7.4 2H11.5M18 7V1M15 4H21M15 11C15 13.2091 13.2091 15 11 15C8.79086 15 7 13.2091 7 11C7 8.79086 8.79086 7 11 7C13.2091 7 15 8.79086 15 11Z" stroke="currentColor" stroke-width="2" stroke-linecap="round" stroke-linejoin="round"/>
    </symbol>
    <symbol id="edit" viewBox="0 0 23 23" fill="none">
      <path d="M10 3.99998H5.8C4.11984 3.99998 3.27976 3.99998 2.63803 4.32696C2.07354 4.61458 1.6146 5.07353 1.32698 5.63801C1 6.27975 1 7.11983 1 8.79998V17.2C1 18.8801 1 19.7202 1.32698 20.362C1.6146 20.9264 2.07354 21.3854 2.63803 21.673C3.27976 22 4.11984 22 5.8 22H14.2C15.8802 22 16.7202 22 17.362 21.673C17.9265 21.3854 18.3854 20.9264 18.673 20.362C19 19.7202 19 18.8801 19 17.2V13M6.99997 16H8.67452C9.1637 16 9.40829 16 9.63846 15.9447C9.84254 15.8957 10.0376 15.8149 10.2166 15.7053C10.4184 15.5816 10.5914 15.4086 10.9373 15.0627L20.5 5.49998C21.3284 4.67156 21.3284 3.32841 20.5 2.49998C19.6716 1.67156 18.3284 1.67155 17.5 2.49998L7.93723 12.0627C7.59133 12.4086 7.41838 12.5816 7.29469 12.7834C7.18504 12.9624 7.10423 13.1574 7.05523 13.3615C6.99997 13.5917 6.99997 13.8363 6.99997 14.3255V16Z" stroke="currentColor" stroke-width="2" stroke-linecap="round" stroke-linejoin="round"/>
    </symbol>
    <symbol id="arrow-right" viewBox="0 0 14 14" fill="none">
      <path d="M1.16663 6.99935H12.8333M12.8333 6.99935L6.99996 1.16602M12.8333 6.99935L6.99996 12.8327" stroke="currentColor" stroke-width="1.66667" stroke-linecap="round" stroke-linejoin="round"/>
    </symbol>
    <symbol id="piggy-bank" viewBox="0 0 22 20" fill="none">
      <path d="M3.99993 11C3.99993 12.6484 4.66466 14.1415 5.74067 15.226C5.84445 15.3305 5.89633 15.3828 5.92696 15.4331C5.95619 15.4811 5.9732 15.5224 5.98625 15.5771C5.99993 15.6343 5.99993 15.6995 5.99993 15.8298V18.2C5.99993 18.48 5.99993 18.62 6.05443 18.727C6.10236 18.8211 6.17885 18.8976 6.27293 18.9455C6.37989 19 6.5199 19 6.79993 19H8.69993C8.97996 19 9.11997 19 9.22693 18.9455C9.32101 18.8976 9.3975 18.8211 9.44543 18.727C9.49993 18.62 9.49993 18.48 9.49993 18.2V17.8C9.49993 17.52 9.49993 17.38 9.55443 17.273C9.60236 17.1789 9.67885 17.1024 9.77293 17.0545C9.87989 17 10.0199 17 10.2999 17H11.6999C11.98 17 12.12 17 12.2269 17.0545C12.321 17.1024 12.3975 17.1789 12.4454 17.273C12.4999 17.38 12.4999 17.52 12.4999 17.8V18.2C12.4999 18.48 12.4999 18.62 12.5544 18.727C12.6024 18.8211 12.6789 18.8976 12.7729 18.9455C12.8799 19 13.0199 19 13.2999 19H15.2C15.48 19 15.62 19 15.727 18.9455C15.8211 18.8976 15.8976 18.8211 15.9455 18.727C16 18.62 16 18.48 16 18.2V17.2243C16 17.0223 16 16.9212 16.0288 16.8401C16.0563 16.7624 16.0911 16.708 16.15 16.6502C16.2114 16.59 16.3155 16.5417 16.5237 16.445C17.5059 15.989 18.344 15.2751 18.9511 14.3902C19.0579 14.2346 19.1112 14.1568 19.1683 14.1108C19.2228 14.0668 19.2717 14.0411 19.3387 14.021C19.4089 14 19.4922 14 19.6587 14H20.2C20.48 14 20.62 14 20.727 13.9455C20.8211 13.8976 20.8976 13.8211 20.9455 13.727C21 13.62 21 13.48 21 13.2V9.78575C21 9.51916 21 9.38586 20.9505 9.28303C20.9013 9.181 20.819 9.09867 20.717 9.04953C20.6141 9 20.4808 9 20.2143 9C20.0213 9 19.9248 9 19.8471 8.9738C19.7633 8.94556 19.7045 8.90798 19.6437 8.84377C19.5874 8.78422 19.5413 8.68464 19.4493 8.48547C19.1538 7.84622 18.7492 7.26777 18.2593 6.77404C18.1555 6.66945 18.1036 6.61716 18.073 6.56687C18.0437 6.51889 18.0267 6.47759 18.0137 6.42294C18 6.36567 18 6.30051 18 6.17018V5.06058C18 4.70053 18 4.52051 17.925 4.39951C17.8593 4.29351 17.7564 4.21588 17.6365 4.18184C17.4995 4.14299 17.3264 4.19245 16.9802 4.29136L14.6077 4.96922C14.5673 4.98074 14.5472 4.9865 14.5267 4.99054C14.5085 4.99414 14.4901 4.99671 14.4716 4.99826C14.4508 5 14.4298 5 14.3879 5H13.959M3.99993 11C3.99993 8.69594 5.29864 6.6952 7.20397 5.6899M3.99993 11H3C1.89543 11 1 10.1046 1 9C1 8.25972 1.4022 7.61337 2 7.26756M14 4.5C14 6.433 12.433 8 10.5 8C8.567 8 7 6.433 7 4.5C7 2.567 8.567 1 10.5 1C12.433 1 14 2.567 14 4.5Z" stroke="currentColor" stroke-width="2" stroke-linecap="round" stroke-linejoin="round"/>
    </symbol>
    <symbol id="clock" viewBox="0 0 22 22" fill="none">
      <path d="M11 5V11L15 13M21 11C21 16.5228 16.5228 21 11 21C5.47715 21 1 16.5228 1 11C1 5.47715 5.47715 1 11 1C16.5228 1 21 5.47715 21 11Z" stroke="currentColor" stroke-width="2" stroke-linecap="round" stroke-linejoin="round"/>
    </symbol>
    <symbol id="book-closed" viewBox="0 0 18 22" fill="none">
      <path d="M17 18V15H4C2.34315 15 1 16.3431 1 18M5.8 21H13.8C14.9201 21 15.4802 21 15.908 20.782C16.2843 20.5903 16.5903 20.2843 16.782 19.908C17 19.4802 17 18.9201 17 17.8V4.2C17 3.07989 17 2.51984 16.782 2.09202C16.5903 1.71569 16.2843 1.40973 15.908 1.21799C15.4802 1 14.9201 1 13.8 1H5.8C4.11984 1 3.27976 1 2.63803 1.32698C2.07354 1.6146 1.6146 2.07354 1.32698 2.63803C1 3.27976 1 4.11984 1 5.8V16.2C1 17.8802 1 18.7202 1.32698 19.362C1.6146 19.9265 2.07354 20.3854 2.63803 20.673C3.27976 21 4.11984 21 5.8 21Z" stroke="currentColor" stroke-width="2" stroke-linecap="round" stroke-linejoin="round"/>
    </symbol>
    <symbol id="shopping-bag" viewBox="0 0 22 22" fill="none">
      <path d="M15.0004 8V5C15.0004 2.79086 13.2095 1 11.0004 1C8.79123 1 7.00037 2.79086 7.00037 5V8M2.59237 9.35196L1.99237 15.752C1.82178 17.5717 1.73648 18.4815 2.03842 19.1843C2.30367 19.8016 2.76849 20.3121 3.35839 20.6338C4.0299 21 4.94374 21 6.77142 21H15.2293C17.057 21 17.9708 21 18.6423 20.6338C19.2322 20.3121 19.6971 19.8016 19.9623 19.1843C20.2643 18.4815 20.179 17.5717 20.0084 15.752L19.4084 9.35197C19.2643 7.81535 19.1923 7.04704 18.8467 6.46616C18.5424 5.95458 18.0927 5.54511 17.555 5.28984C16.9444 5 16.1727 5 14.6293 5L7.37142 5C5.82806 5 5.05638 5 4.44579 5.28984C3.90803 5.54511 3.45838 5.95458 3.15403 6.46616C2.80846 7.04704 2.73643 7.81534 2.59237 9.35196Z" stroke="currentColor" stroke-width="2" stroke-linecap="round" stroke-linejoin="round"/>
    </symbol>
    <symbol id="wifi" viewBox="0 0 24 18" fill="none">
      <path d="M12 16.5H12.01M22.8064 5.70076C19.9595 3.09199 16.1656 1.5 11.9999 1.5C7.83414 1.5 4.04023 3.09199 1.19336 5.70076M4.73193 9.24297C6.67006 7.53566 9.21407 6.5 12 6.5C14.7859 6.5 17.3299 7.53566 19.268 9.24297M15.6983 12.7751C14.6792 11.9763 13.3952 11.5 11.9999 11.5C10.5835 11.5 9.28172 11.9908 8.25537 12.8116" stroke="currentColor" stroke-width="2" stroke-linecap="round" stroke-linejoin="round"/>
    </symbol>
    <symbol id="snort-by" viewBox="0 0 1715.5309 201.961" fill="none">
      <g transform="translate(-0.001,-634.57194)">
        <path fill="currentColor" d="m 24.77,750.25 c 2.722,-36.745 14.697,-72.401 32.934,-108.058 47.089,-5.444 92.544,-7.35 136.91,-7.35 45.183,0 89.821,0.816 134.188,4.628 l -14.97,49.537 c -30.757,-1.36 -59.064,-3.266 -100.165,-3.266 -38.65,0 -66.686,1.36 -97.17,3.538 -2.722,4.899 -4.627,9.526 -5.172,16.876 64.508,3.266 131.466,0.816 194.069,14.153 -3.267,35.929 -14.698,72.401 -33.207,108.603 -47.36,5.443 -93.632,7.349 -138.815,7.349 -44.639,0 -89.005,-1.089 -133.371,-4.627 l 14.971,-49.538 c 31.029,1.633 60.97,2.994 103.703,2.994 38.378,0 66.141,-1.361 93.903,-3.267 2.45,-4.627 4.899,-11.159 5.444,-17.964 C 152.152,761.954 87.916,762.227 24.77,750.25 Z" />
        <path fill="currentColor" d="m 640.713,833.539 h -78.934 l -87.1,-138.543 c -4.083,-0.544 -9.799,-0.816 -15.243,-0.816 L 416.975,833.539 H 337.77 l 49.811,-163.312 -31.846,-26.946 1.905,-5.717 h 49.266 c 42.461,0 81.384,1.089 132.282,3.812 l 53.893,89.549 28.58,-93.36 h 78.934 z" />
        <path fill="currentColor" d="m 835.313,836.533 c -49.538,0 -97.715,-2.722 -145.62,-8.982 13.882,-61.786 32.663,-122.212 56.343,-183.998 51.716,-6.26 101.525,-8.981 151.063,-8.981 49.538,0 97.715,2.722 145.619,8.981 -14.153,62.059 -32.662,122.212 -56.342,183.998 -51.716,6.261 -101.525,8.982 -151.063,8.982 z m -47.906,-59.881 c 20.959,2.178 43.55,3.266 65.325,3.266 21.774,0 44.91,-1.088 66.958,-3.266 11.704,-27.491 19.869,-54.438 25.313,-82.2 -20.958,-2.178 -43.55,-3.267 -65.324,-3.267 -21.775,0 -44.911,1.089 -66.958,3.267 -5.988,14.153 -10.888,26.946 -14.97,41.1 -4.355,14.154 -7.622,26.946 -10.344,41.1 z" />
        <path fill="currentColor" d="m 1124.904,833.539 h -75.939 l 50.082,-164.4 -30.757,-25.857 1.905,-5.717 h 181.275 c 41.645,0 98.26,0.817 139.088,7.35 -6.261,43.822 -16.604,88.188 -41.101,134.46 -13.882,0.544 -29.668,2.178 -45.183,3.267 l 43.277,50.898 h -95.81 l -79.751,-91.727 1.634,-5.988 h 33.479 c 31.029,0 55.799,0 82.2,-1.361 7.077,-16.331 11.977,-31.301 14.698,-47.36 -22.047,-1.089 -41.372,-1.089 -68.047,-1.089 h -66.141 z" />
        <path fill="currentColor" d="m 1698.113,694.724 c -53.893,-1.633 -85.466,-2.449 -106.425,-2.722 l -43.005,141.537 h -79.479 l 43.006,-141.537 c -21.231,0.272 -53.077,1.089 -108.059,2.722 l 17.42,-56.342 c 50.082,-2.723 99.076,-3.539 148.069,-3.539 49.266,0 97.442,0.816 145.892,3.539 z" />
      </g>
    </symbol>
    <!-- V2 -->
    <symbol id="mail" viewBox="0 0 24 24" fill="none">
      <g id="mail-01">
        <g id="Solid">
          <path d="M2.13352 8.18144C1.83359 7.9672 1.68363 7.86008 1.55288 7.84617C1.35735 7.82537 1.16139 7.92622 1.06467 8.09741C0.999992 8.21189 0.999995 8.39416 1 8.75869V15.2413C0.999988 16.0463 0.999978 16.7106 1.04419 17.2518C1.09012 17.8139 1.18868 18.3306 1.43598 18.816C1.81947 19.5686 2.43139 20.1805 3.18404 20.564C3.66937 20.8113 4.18608 20.9099 4.74818 20.9558C5.28937 21 5.95372 21 6.75868 21H17.2413C18.0463 21 18.7106 21 19.2518 20.9558C19.8139 20.9099 20.3306 20.8113 20.816 20.564C21.5686 20.1805 22.1805 19.5686 22.564 18.816C22.8113 18.3306 22.9099 17.8139 22.9558 17.2518C23 16.7106 23 16.0463 23 15.2413V8.75868C23 8.58001 23 8.49068 22.9836 8.42829C22.9096 8.14627 22.603 7.98561 22.329 8.08531C22.2684 8.10737 22.1941 8.15886 22.0453 8.26184L14.3032 13.6219C13.7542 14.0032 13.2722 14.3379 12.7247 14.4706C12.2458 14.5867 11.7456 14.583 11.2685 14.4599C10.7229 14.3191 10.2459 13.9774 9.70265 13.5881L2.13352 8.18144Z" fill="currentColor"/>
          <path d="M22.1328 5.76872C22.3174 5.64092 22.4097 5.57702 22.4664 5.47424C22.5104 5.39443 22.5356 5.26804 22.5255 5.17745C22.5125 5.06079 22.463 4.98377 22.3638 4.82973C21.9839 4.23964 21.4373 3.75256 20.816 3.43598C20.3306 3.18868 19.8139 3.09012 19.2518 3.04419C18.7106 2.99998 18.0463 2.99999 17.2413 3H6.7587C5.95374 2.99999 5.28937 2.99998 4.74818 3.04419C4.18608 3.09012 3.66937 3.18868 3.18404 3.43598C2.62501 3.72082 2.1418 4.1326 1.77436 4.63335C1.65877 4.79089 1.60097 4.86966 1.58192 4.98921C1.56703 5.08269 1.58783 5.21257 1.63116 5.29674C1.68657 5.40436 1.78269 5.47302 1.97493 5.61033L10.75 11.8783C11.4773 12.3977 11.6316 12.4881 11.7681 12.5233C11.9272 12.5644 12.0939 12.5656 12.2535 12.5269C12.3906 12.4937 12.5463 12.4056 13.281 11.8969L22.1328 5.76872Z" fill="currentColor"/>
        </g>
      </g>
    </symbol>
    <symbol id="bell-v2" viewBox="0 0 24 24" fill="none" >
      <g id="bell-02">
        <g id="Solid">
          <path fill-rule="evenodd" clip-rule="evenodd" d="M8.99974 21C8.99974 20.4477 9.44745 20 9.99974 20H13.9997C14.552 20 14.9997 20.4477 14.9997 21C14.9997 21.5523 14.552 22 13.9997 22H9.99974C9.44745 22 8.99974 21.5523 8.99974 21Z" fill="currentColor"/>
          <path fill-rule="evenodd" clip-rule="evenodd" d="M7.04999 3.05025C8.36275 1.7375 10.1432 1 11.9997 1C13.8563 1 15.6367 1.7375 16.9495 3.05025C18.2622 4.36301 18.9997 6.14349 18.9997 8C18.9997 10.9127 19.7317 12.8439 20.4991 14.0771L20.511 14.0962C20.8683 14.6704 21.1507 15.1243 21.3411 15.4547C21.4366 15.6202 21.5235 15.7797 21.5879 15.9215C21.62 15.9922 21.6559 16.079 21.684 16.1733C21.7073 16.2515 21.7517 16.4187 21.7351 16.6223C21.7239 16.7591 21.696 16.9928 21.5618 17.2343C21.4277 17.4758 21.244 17.623 21.1337 17.7047C20.8834 17.8904 20.596 17.9329 20.5001 17.947L20.4957 17.9477C20.3482 17.9695 20.181 17.9804 20.0122 17.9869C19.677 18 19.2128 18 18.6356 18H5.36388C4.78666 18 4.32252 18 3.98726 17.9869C3.81851 17.9804 3.65123 17.9695 3.50382 17.9477L3.49939 17.947C3.40347 17.9329 3.11604 17.8904 2.86574 17.7047C2.7555 17.623 2.57178 17.4758 2.43762 17.2343C2.30347 16.9928 2.27558 16.7591 2.26439 16.6223C2.24774 16.4187 2.29214 16.2515 2.31545 16.1733C2.34354 16.079 2.37948 15.9922 2.41161 15.9215C2.47598 15.7797 2.56291 15.6202 2.65833 15.4547C2.84876 15.1243 3.13124 14.6703 3.48856 14.0961L3.50035 14.0771C4.26773 12.8439 4.99974 10.9127 4.99974 8C4.99974 6.14348 5.73724 4.36301 7.04999 3.05025Z" fill="currentColor"/>
        </g>
      </g>
    </symbol>

  </defs>
</svg>